<svg width="28" height="29" fill="none" xmlns="http://www.w3.org/2000/svg"><path d="M27.067 14.815c0 7.41-5.951 13.41-13.283 13.41S.5 22.224.5 14.814 6.452 1.406 13.784 1.406c7.332 0 13.283 6 13.283 13.41Z" stroke="#fff"/><path fill-rule="evenodd" clip-rule="evenodd" d="M10.66 6.954c.845-.039 1.114-.048 3.268-.048 2.153 0 2.423.01 3.268.048.844.039 1.42.175 1.925.372a3.897 3.897 0 0 1 1.404.924c.404.399.715.882.914 1.416.196.509.33 1.09.37 1.941.038.855.047 1.127.047 3.3 0 2.172-.01 2.444-.048 3.297-.038.851-.173 1.433-.369 1.942a3.929 3.929 0 0 1-.914 1.418 3.883 3.883 0 0 1-1.404.922c-.504.198-1.08.333-1.924.372-.846.04-1.116.048-3.27.048-2.153 0-2.422-.01-3.268-.048-.843-.038-1.42-.174-1.924-.372a3.888 3.888 0 0 1-1.405-.922 3.925 3.925 0 0 1-.914-1.417c-.195-.51-.33-1.09-.368-1.942C6.008 17.351 6 17.08 6 14.906s.01-2.445.048-3.297c.038-.853.173-1.434.368-1.943.2-.534.512-1.018.915-1.417a3.883 3.883 0 0 1 1.403-.923c.505-.197 1.081-.332 1.925-.372Zm6.471 1.44c-.836-.038-1.086-.046-3.203-.046s-2.368.008-3.204.046c-.773.036-1.192.166-1.472.276a2.46 2.46 0 0 0-.912.598 2.484 2.484 0 0 0-.592.92c-.11.282-.238.705-.273 1.486-.039.843-.047 1.096-.047 3.232s.008 2.39.047 3.233c.035.78.164 1.204.273 1.486.127.347.33.662.592.92.256.265.568.47.912.598.28.11.699.24 1.472.275.836.039 1.086.047 3.204.047 2.117 0 2.367-.008 3.203-.047.774-.035 1.193-.166 1.473-.275a2.46 2.46 0 0 0 .912-.598c.263-.258.465-.573.592-.92.109-.282.238-.706.273-1.486.038-.844.046-1.097.046-3.233s-.008-2.389-.046-3.232c-.035-.78-.164-1.204-.273-1.486a2.486 2.486 0 0 0-.592-.92 2.458 2.458 0 0 0-.912-.598c-.28-.11-.7-.24-1.473-.276Zm-4.216 8.978c.566.238 1.196.27 1.782.091a2.646 2.646 0 0 0 1.433-1.072 2.687 2.687 0 0 0-.332-3.372 2.642 2.642 0 0 0-2.13-.768c-.388.038-.764.164-1.1.367a2.682 2.682 0 0 0-1.171 3.064c.114.377.309.724.571 1.017.263.292.586.522.947.673ZM11.047 12a4.044 4.044 0 0 1 5.763 0 4.115 4.115 0 0 1 1.193 2.907 4.147 4.147 0 0 1-1.194 2.908 4.057 4.057 0 0 1-2.881 1.204 4.056 4.056 0 0 1-2.882-1.204 4.131 4.131 0 0 1-1.193-2.908c0-1.09.43-2.136 1.194-2.907Zm7.86-.592a.973.973 0 0 0 .231-1.073.975.975 0 0 0-.53-.536.956.956 0 0 0-1.064.234.977.977 0 0 0 .02 1.355.96.96 0 0 0 1.343.02Z" fill="#fff"/></svg>